<?xml version="1.0" encoding="UTF-8" standalone="no"?>
<svg
   xmlns:dc="http://purl.org/dc/elements/1.1/"
   xmlns:cc="http://creativecommons.org/ns#"
   xmlns:rdf="http://www.w3.org/1999/02/22-rdf-syntax-ns#"
   xmlns:svg="http://www.w3.org/2000/svg"
   xmlns="http://www.w3.org/2000/svg"
   xmlns:sodipodi="http://sodipodi.sourceforge.net/DTD/sodipodi-0.dtd"
   xmlns:inkscape="http://www.inkscape.org/namespaces/inkscape"
   sodipodi:docname="utilities-teatime.svg"
   inkscape:version="1.0beta2 (unknown)"
   id="svg2"
   preserveAspectRatio="xMidYMid meet"
   viewBox="0 0 387.25143 387.25143"
   height="387.25143"
   width="387.25143"
   version="1.0">
  <defs
     id="defs12" />
  <sodipodi:namedview
     viewbox-width="387.25144"
     viewbox-y="-75.50897"
     viewbox-height="387.25143"
     scale-x="1"
     inkscape:document-rotation="0"
     inkscape:current-layer="g6"
     inkscape:window-maximized="1"
     inkscape:window-y="0"
     inkscape:window-x="0"
     inkscape:cy="17.137568"
     inkscape:cx="1738.6914"
     inkscape:zoom="0.26700352"
     fit-margin-bottom="75.50897"
     fit-margin-right="0"
     fit-margin-left="0"
     fit-margin-top="75.50897"
     showgrid="false"
     id="namedview10"
     inkscape:window-height="1016"
     inkscape:window-width="1920"
     inkscape:pageshadow="2"
     inkscape:pageopacity="0"
     guidetolerance="10"
     gridtolerance="10"
     objecttolerance="10"
     borderopacity="1"
     bordercolor="#666666"
     pagecolor="#ffffff" />
  <metadata
     id="metadata4">
Created by potrace 1.10, written by Peter Selinger 2001-2011
<rdf:RDF>
  <cc:Work
     rdf:about="">
    <dc:format>image/svg+xml</dc:format>
    <dc:type
       rdf:resource="http://purl.org/dc/dcmitype/StillImage" />
    <dc:title></dc:title>
  </cc:Work>
</rdf:RDF>
</metadata>
  <g
     style="fill:#800000;stroke:none"
     id="g6"
     transform="matrix(0.1,0,0,-0.1,-57.589577,454.0802)">
    <path
       sodipodi:nodetypes="ccccccccccccccccccccccc"
       inkscape:connector-curvature="0"
       id="path8"
       d="m 1599.0437,1573.9177 c -235.4892,257.2771 -410.9172,307.0416 -639.52404,523.818 -239.98241,192.756 -444.12233,501.9215 -367.10697,821.8921 38.7852,200.5961 248.27611,336.0011 446.84671,290.8161 140.2785,-17.7787 266.8099,-85.0946 387.0129,-155.5415 74.2781,124.4657 298.1841,153.0228 229.5089,329.9101 109.3355,93.2904 275.201,94.5077 412.7117,124.4857 65.4385,24.6741 304.7317,-9.5508 144.7011,56.4876 -101.917,152.0308 154.8854,242.0949 276.2029,215.2013 221.301,17.1274 185.843,-251.1767 60.175,-252.1853 248.6206,-20.1446 504.4064,-33.9528 739.5175,-123.2683 84.1199,-70.036 -35.4555,-202.8042 111.3126,-240.3189 101.8205,-78.4406 164.8623,-338.5003 310.0326,-157.8318 135.2599,104.6132 214.2352,323.1066 418.3717,295.2474 93.5126,-2.8298 436.4814,5.3717 278.6869,-142.0678 -159.5297,-98.6124 -325.2795,-228.4326 -356.5455,-425.8986 -75.7637,-262.5934 -248.0386,-367.4119 -455.0358,-567.049 -164.5176,-129.6551 -89.2139,-307.7161 -486.3504,-668.5647 -214.1213,-95.3861 -1128.9411,-129.9962 -1510.5178,74.8676 z m -356.907,736.2999 c -39.4266,157.4822 53.2887,327.3731 16.2311,476.437 -97.7858,101.3794 -355.93876,159.0896 -327.80798,-45.542 35.80376,-97.6021 218.31118,-439.8564 311.57688,-430.895 z"
       style="fill:#cccccc;fill-opacity:0.941176" />
  </g>
</svg>
